<svg width="200" height="49" viewBox="0 0 376 49" fill="none" xmlns="http://www.w3.org/2000/svg">
<path d="M0.9024 47.9333V2.77966H7.09491V22.1957H30.8973V2.77966H37.0899V47.9333H30.8973V27.6787H7.09491V47.9333H0.9024ZM60.3692 48.7074C57.1869 48.7074 54.4347 47.9549 52.1125 46.4497C49.7903 44.9016 48.0057 42.8159 46.7586 40.1927C45.5115 37.5695 44.8879 34.6668 44.8879 31.4845C44.8879 28.2592 45.576 25.3565 46.9521 22.7763C48.3282 20.1531 50.3064 18.0889 52.8866 16.5838C55.4668 15.0357 58.5631 14.2616 62.1753 14.2616C65.6586 14.2616 68.6474 15.0142 71.1416 16.5193C73.6358 18.0244 75.5494 20.0671 76.8825 22.6473C78.2587 25.2275 78.9467 28.1087 78.9467 31.291V47.9333H72.9477V41.2248H72.8187C72.1737 42.4719 71.2921 43.676 70.174 44.8371C69.0989 45.9552 67.7443 46.8798 66.1102 47.6108C64.476 48.3419 62.5624 48.7074 60.3692 48.7074ZM61.9173 43.6115C64.0675 43.6115 65.9597 43.0955 67.5938 42.0634C69.2709 40.9883 70.561 39.5262 71.4641 37.677C72.4102 35.7849 72.8832 33.6777 72.8832 31.3555C72.8832 29.0763 72.4317 27.0336 71.5286 25.2275C70.6685 23.4213 69.4214 22.0022 67.7873 20.9701C66.1532 19.8951 64.2395 19.3575 62.0463 19.3575C59.7241 19.3575 57.7245 19.8951 56.0473 20.9701C54.4132 22.0452 53.1446 23.5074 52.2415 25.3565C51.3815 27.1627 50.9514 29.2268 50.9514 31.549C50.9514 33.7852 51.3815 35.8279 52.2415 37.677C53.1016 39.4832 54.3487 40.9238 55.9828 41.9989C57.617 43.074 59.5951 43.6115 61.9173 43.6115ZM88.3957 47.9333V28.1302C88.3957 25.593 88.9763 23.2708 90.1374 21.1637C91.2985 19.0565 92.9756 17.3794 95.1688 16.1323C97.362 14.8852 100.007 14.2616 103.103 14.2616C104.608 14.2616 106.113 14.4766 107.618 14.9067C109.123 15.2937 110.521 15.9817 111.811 16.9708C113.101 17.9169 114.133 19.207 114.907 20.8411H114.972C115.832 19.207 116.907 17.9169 118.197 16.9708C119.487 15.9817 120.885 15.2937 122.39 14.9067C123.895 14.4766 125.422 14.2616 126.97 14.2616C130.023 14.2616 132.646 14.8852 134.84 16.1323C137.033 17.3794 138.71 19.0565 139.871 21.1637C141.032 23.2708 141.613 25.593 141.613 28.1302V47.9333H135.678V28.1302C135.678 26.4961 135.291 25.0125 134.517 23.6794C133.743 22.3463 132.689 21.2927 131.356 20.5186C130.066 19.7445 128.583 19.3575 126.905 19.3575C125.271 19.3575 123.766 19.766 122.39 20.5831C121.014 21.3572 119.917 22.4108 119.1 23.7439C118.326 25.034 117.939 26.4961 117.939 28.1302V47.9333H112.005V28.1302C112.005 26.4961 111.596 25.034 110.779 23.7439C110.005 22.4108 108.93 21.3572 107.554 20.5831C106.221 19.766 104.716 19.3575 103.038 19.3575C101.404 19.3575 99.9207 19.7445 98.5876 20.5186C97.2975 21.2927 96.2654 22.3463 95.4913 23.6794C94.7172 25.0125 94.3302 26.4961 94.3302 28.1302V47.9333H88.3957ZM151.011 47.9333V28.1302C151.011 25.593 151.592 23.2708 152.753 21.1637C153.914 19.0565 155.591 17.3794 157.784 16.1323C159.977 14.8852 162.622 14.2616 165.718 14.2616C167.224 14.2616 168.729 14.4766 170.234 14.9067C171.739 15.2937 173.136 15.9817 174.427 16.9708C175.717 17.9169 176.749 19.207 177.523 20.8411H177.587C178.447 19.207 179.523 17.9169 180.813 16.9708C182.103 15.9817 183.5 15.2937 185.005 14.9067C186.511 14.4766 188.037 14.2616 189.585 14.2616C192.639 14.2616 195.262 14.8852 197.455 16.1323C199.648 17.3794 201.325 19.0565 202.486 21.1637C203.647 23.2708 204.228 25.593 204.228 28.1302V47.9333H198.294V28.1302C198.294 26.4961 197.907 25.0125 197.132 23.6794C196.358 22.3463 195.305 21.2927 193.972 20.5186C192.682 19.7445 191.198 19.3575 189.521 19.3575C187.887 19.3575 186.382 19.766 185.005 20.5831C183.629 21.3572 182.533 22.4108 181.716 23.7439C180.942 25.034 180.555 26.4961 180.555 28.1302V47.9333H174.62V28.1302C174.62 26.4961 174.212 25.034 173.395 23.7439C172.62 22.4108 171.545 21.3572 170.169 20.5831C168.836 19.766 167.331 19.3575 165.654 19.3575C164.02 19.3575 162.536 19.7445 161.203 20.5186C159.913 21.2927 158.881 22.3463 158.107 23.6794C157.333 25.0125 156.946 26.4961 156.946 28.1302V47.9333H151.011ZM227.302 48.7074C224.12 48.7074 221.367 47.9549 219.045 46.4497C216.723 44.9016 214.938 42.8159 213.691 40.1927C212.444 37.5695 211.821 34.6668 211.821 31.4845C211.821 28.2592 212.509 25.3565 213.885 22.7763C215.261 20.1531 217.239 18.0889 219.819 16.5838C222.399 15.0357 225.496 14.2616 229.108 14.2616C232.591 14.2616 235.58 15.0142 238.074 16.5193C240.568 18.0244 242.482 20.0671 243.815 22.6473C245.191 25.2275 245.879 28.1087 245.879 31.291V47.9333H239.88V41.2248H239.751C239.106 42.4719 238.225 43.676 237.107 44.8371C236.031 45.9552 234.677 46.8798 233.043 47.6108C231.409 48.3419 229.495 48.7074 227.302 48.7074ZM228.85 43.6115C231 43.6115 232.892 43.0955 234.526 42.0634C236.203 40.9883 237.494 39.5262 238.397 37.677C239.343 35.7849 239.816 33.6777 239.816 31.3555C239.816 29.0763 239.364 27.0336 238.461 25.2275C237.601 23.4213 236.354 22.0022 234.72 20.9701C233.086 19.8951 231.172 19.3575 228.979 19.3575C226.657 19.3575 224.657 19.8951 222.98 20.9701C221.346 22.0452 220.077 23.5074 219.174 25.3565C218.314 27.1627 217.884 29.2268 217.884 31.549C217.884 33.7852 218.314 35.8279 219.174 37.677C220.034 39.4832 221.281 40.9238 222.915 41.9989C224.55 43.074 226.528 43.6115 228.85 43.6115ZM270.487 48.7074C267.993 48.7074 265.714 48.3204 263.649 47.5463C261.585 46.7293 259.801 45.5467 258.296 43.9985C256.79 42.4504 255.608 40.6013 254.748 38.4511C253.931 36.2579 253.522 33.8067 253.522 31.0975C253.522 27.6572 254.21 24.69 255.586 22.1957C257.005 19.6585 258.919 17.7019 261.327 16.3258C263.778 14.9497 266.509 14.2616 269.519 14.2616C271.197 14.2616 272.788 14.5411 274.293 15.1002C275.841 15.6592 277.217 16.4333 278.421 17.4224C279.625 18.4114 280.571 19.5725 281.259 20.9056H281.388V0.844505H287.323V31.291C287.323 34.9463 286.57 38.0855 285.065 40.7088C283.603 43.289 281.603 45.2671 279.066 46.6432C276.572 48.0194 273.712 48.7074 270.487 48.7074ZM270.487 43.6115C272.508 43.6115 274.336 43.117 275.97 42.1279C277.604 41.1388 278.894 39.7412 279.84 37.935C280.829 36.1289 281.324 34.0002 281.324 31.549C281.324 29.0548 280.829 26.9046 279.84 25.0985C278.894 23.2493 277.604 21.8302 275.97 20.8411C274.336 19.8521 272.487 19.3575 270.423 19.3575C268.401 19.3575 266.552 19.8736 264.875 20.9056C263.241 21.9377 261.929 23.3568 260.94 25.163C259.994 26.9691 259.521 29.0763 259.521 31.4845C259.521 33.9787 260.016 36.1289 261.005 37.935C261.994 39.7412 263.305 41.1388 264.94 42.1279C266.617 43.117 268.466 43.6115 270.487 43.6115ZM298.526 48.5784C297.365 48.5784 296.354 48.1699 295.494 47.3528C294.677 46.4927 294.268 45.4821 294.268 44.3211C294.268 43.16 294.677 42.1709 295.494 41.3538C296.354 40.4937 297.365 40.0637 298.526 40.0637C299.687 40.0637 300.676 40.4937 301.493 41.3538C302.353 42.1709 302.783 43.16 302.783 44.3211C302.783 45.0951 302.589 45.8047 302.202 46.4497C301.858 47.0948 301.364 47.6108 300.719 47.9979C300.074 48.3849 299.343 48.5784 298.526 48.5784ZM309.944 47.9333V0.844505H315.878V19.293C317.211 17.5729 318.824 16.3043 320.716 15.4872C322.651 14.6701 324.651 14.2616 326.715 14.2616C329.639 14.2616 332.176 14.8852 334.327 16.1323C336.477 17.3364 338.154 19.035 339.358 21.2282C340.562 23.4213 341.164 25.9801 341.164 28.9043V47.9333H335.23V28.9688C335.23 26.9906 334.778 25.292 333.875 23.8729C332.972 22.4108 331.768 21.2927 330.263 20.5186C328.801 19.7445 327.231 19.3575 325.554 19.3575C323.877 19.3575 322.307 19.7445 320.845 20.5186C319.383 21.2497 318.179 22.3248 317.233 23.7439C316.33 25.163 315.878 26.8616 315.878 28.8398V47.9333H309.944ZM355.412 47.9333C354.036 47.9333 352.811 47.6108 351.735 46.9658C350.66 46.3207 349.8 45.4606 349.155 44.3856C348.553 43.2675 348.252 42.0634 348.252 40.7733C348.252 39.3972 348.575 38.1931 349.22 37.161C349.908 36.0859 350.897 35.1183 352.187 34.2582L367.346 24.6469C367.991 24.2599 368.399 23.8729 368.571 23.4859C368.786 23.0988 368.894 22.6903 368.894 22.2603C368.894 21.7442 368.679 21.2712 368.249 20.8411C367.819 20.3681 367.26 20.1316 366.572 20.1316H349.865V15.0357H368.378C369.711 15.0357 370.894 15.3582 371.926 16.0032C373.001 16.6483 373.839 17.5299 374.441 18.648C375.086 19.723 375.409 20.9056 375.409 22.1957C375.409 23.5289 375.065 24.7545 374.377 25.8725C373.732 26.9476 372.786 27.8937 371.539 28.7108L356.38 38.3221C355.735 38.7091 355.305 39.0961 355.09 39.4832C354.918 39.8702 354.832 40.2787 354.832 40.7088C354.832 41.2248 355.047 41.7193 355.477 42.1924C355.907 42.6224 356.487 42.8374 357.218 42.8374H374.828V47.9333H355.412Z" fill="black"/>
</svg>
